<svg width="25" height="24" viewBox="0 0 25 24" fill="none" xmlns="http://www.w3.org/2000/svg">
<g clip-path="url(#clip0_162_481)">
<path d="M22.0812 6.7127C20.975 6.73145 20.0562 7.70645 20.1125 8.8127C20.1312 9.43145 20.4312 9.95645 20.8812 10.3127C18.5562 13.4252 16.1937 13.669 13.4562 8.5127C14.4312 8.0252 14.975 6.7877 14.2625 5.5502C13.925 4.9502 13.2312 4.6502 12.5375 4.6877C12.5187 4.6877 12.5187 4.6877 12.5 4.6877C12.5 4.6877 12.4812 4.6877 12.4625 4.6877C11.7687 4.66895 11.0937 4.9502 10.7375 5.5502C10.025 6.7877 10.5687 8.0252 11.5437 8.5127C8.8062 13.669 6.4437 13.4252 4.1187 10.3127C4.5687 9.95645 4.8687 9.4127 4.88745 8.8127C4.92495 7.70645 4.02495 6.73145 2.9187 6.7127C1.77495 6.69395 0.856201 7.59395 0.856201 8.7377C0.856201 9.84395 1.7562 10.7627 2.8812 10.7627C2.9562 10.7627 3.04995 10.7627 3.12495 10.744L3.8937 18.2815C3.94995 18.8815 4.4562 19.3315 5.0562 19.3315H12.5H19.9437C20.5437 19.3315 21.05 18.8815 21.1062 18.2815L21.875 10.744C21.95 10.7627 22.025 10.7627 22.1187 10.7627C23.225 10.7627 24.1437 9.8627 24.1437 8.7377C24.1437 7.59395 23.2062 6.69395 22.0812 6.7127Z" fill="#FF7043"/>
</g>
<defs>
<clipPath id="clip0_162_481">
<rect width="24" height="24" fill="white" transform="translate(0.5)"/>
</clipPath>
</defs>
</svg>
