<svg width="20" height="20" viewBox="0 0 20 20" fill="none" xmlns="http://www.w3.org/2000/svg">
<path fill-rule="evenodd" clip-rule="evenodd" d="M14.4263 2.01454C14.0289 2.06603 13.6762 2.19911 13.3177 2.43269C13.144 2.54587 6.91793 8.73662 6.72816 8.98485C6.61345 9.1349 6.48731 9.40512 6.44951 9.5818C6.38157 9.89934 6.03763 12.4141 6.04949 12.5066C6.0934 12.8488 6.36942 13.1175 6.69894 13.139C6.83502 13.1478 9.34987 12.8461 9.57946 12.7933C9.74291 12.7558 9.91244 12.6818 10.0581 12.5845C10.2489 12.4571 16.6355 6.05771 16.762 5.8673C17.6809 4.48341 17.0594 2.64919 15.4943 2.12563C15.1785 2.02 14.7378 1.97416 14.4263 2.01454ZM14.931 3.46904C15.589 3.60851 15.933 4.33107 15.6289 4.93496C15.5573 5.07701 15.4694 5.16691 12.4003 8.23531L9.24516 11.3896L8.43517 11.4897C7.98967 11.5446 7.62358 11.5877 7.62163 11.5854C7.61966 11.583 7.67287 11.1974 7.73987 10.7283L7.86164 9.87554L10.9829 6.75649C13.9299 3.8115 14.1118 3.63349 14.242 3.56673C14.4709 3.44935 14.6909 3.41815 14.931 3.46904ZM3.94651 4.45709C2.96412 4.63119 2.19085 5.40825 2.03331 6.37963C1.9884 6.65665 1.98914 15.7781 2.03411 16.0454C2.19921 17.0269 2.9813 17.8085 3.95649 17.9667C4.23352 18.0116 13.3549 18.0109 13.6223 17.9659C14.4763 17.8222 15.181 17.2182 15.4575 16.3928C15.5773 16.0355 15.5746 16.1121 15.5687 13.2298L15.5633 10.6146L15.5124 10.5059C15.2539 9.95434 14.4671 9.95159 14.1976 10.5013L14.142 10.6146L14.1326 13.2298L14.1231 15.845L14.0823 15.9444C13.9515 16.2631 13.702 16.4782 13.3955 16.5363C13.2563 16.5628 4.32359 16.5632 4.18123 16.5368C3.83472 16.4725 3.52978 16.1674 3.46366 15.8187C3.43724 15.6794 3.43684 6.74673 3.46324 6.60437C3.52749 6.25785 3.83265 5.95292 4.18133 5.8868C4.24595 5.87454 4.90667 5.86745 5.98461 5.86745C7.90032 5.86745 7.81464 5.87355 8.01183 5.72318C8.44315 5.39425 8.3713 4.73122 7.87879 4.4956L7.75561 4.43666L5.92686 4.43344C4.42151 4.43079 4.0713 4.43498 3.94651 4.45709Z" fill="#1F3B4D"/>
</svg>
