<svg width="20" height="20" viewBox="0 0 20 20" fill="none" xmlns="http://www.w3.org/2000/svg">
<path d="M8.44209 13.2017L7.78557 15.6517L6.1757 15.2204L6.83192 12.7713C5.841 12.4063 4.93051 11.875 4.1343 11.2113L2.33986 13.0057L1.16135 11.8272L2.9558 10.0328C1.96318 8.84204 1.26679 7.39571 0.97982 5.80698L1.73029 5.67053C4.05735 7.3464 6.91349 8.33354 10.0002 8.33354C13.0869 8.33354 15.943 7.3464 18.2701 5.67053L19.0206 5.80698C18.7336 7.39571 18.0372 8.84204 17.0446 10.0328L18.839 11.8272L17.6605 13.0057L15.8661 11.2113C15.0698 11.875 14.1593 12.4063 13.1684 12.7713L13.8247 15.2204L12.2148 15.6517L11.5583 13.2017C11.0519 13.2884 10.5313 13.3335 10.0002 13.3335C9.46909 13.3335 8.94842 13.2884 8.44209 13.2017Z" fill="#0A0A0A"/>
</svg>
