<svg width="50" height="50" viewBox="0 0 50 50" fill="none" xmlns="http://www.w3.org/2000/svg">
<path d="M24.9927 45C27.0637 45 28.7427 43.3211 28.7427 41.25C28.7427 39.1789 27.0637 37.5 24.9927 37.5C22.9216 37.5 21.2427 39.1789 21.2427 41.25C21.2427 43.3211 22.9216 45 24.9927 45Z" fill="black"/>
<path d="M0.767707 18.8701C1.24378 19.3315 1.88366 19.585 2.5466 19.5747C3.20953 19.5643 3.84122 19.2911 4.30271 18.8151C9.83521 13.1051 17.1852 9.96506 25.0002 9.96006C27.4502 9.96006 29.8452 10.2926 32.1577 10.8976L28.6002 16.2301C27.4111 16.0227 26.2072 15.9123 25.0002 15.9001C18.6502 15.9001 12.6902 18.4476 8.21021 23.0676C7.7484 23.5436 7.49462 24.1836 7.5047 24.8468C7.51478 25.51 7.78789 26.142 8.26396 26.6038C8.74002 27.0656 9.38004 27.3194 10.0432 27.3093C10.7064 27.2992 11.3384 27.0261 11.8002 26.5501C15.3302 22.9076 20.0177 20.9001 25.0002 20.9001C25.1552 20.9001 25.3077 20.9326 25.4627 20.9376L21.0577 27.5451C19.0627 28.1701 17.2227 29.2426 15.7077 30.8051C15.2462 31.2811 14.9928 31.921 15.0031 32.584C15.0134 33.2469 15.2867 33.8786 15.7627 34.3401C15.9185 34.4852 16.0924 34.6096 16.2802 34.7101L8.44771 46.4601C8.3079 46.6649 8.2101 46.8953 8.15998 47.1382C8.10986 47.381 8.1084 47.6314 8.15569 47.8748C8.20298 48.1182 8.29808 48.3498 8.43549 48.5563C8.5729 48.7627 8.74989 48.9398 8.95621 49.0773C9.16253 49.2149 9.39408 49.3101 9.63746 49.3576C9.88084 49.405 10.1312 49.4037 10.3741 49.3538C10.617 49.3038 10.8475 49.2061 11.0524 49.0665C11.2573 48.9268 11.4324 48.7479 11.5677 48.5401L41.5677 3.54006C41.7075 3.33527 41.8053 3.10478 41.8554 2.86194C41.9056 2.61909 41.907 2.36872 41.8597 2.12531C41.8124 1.88189 41.7173 1.65028 41.5799 1.44387C41.4425 1.23746 41.2655 1.06036 41.0592 0.922816C40.8529 0.785271 40.6213 0.690015 40.378 0.642563C40.1346 0.595111 39.8842 0.596405 39.6413 0.646371C39.3984 0.696336 39.1679 0.793981 38.963 0.933652C38.7581 1.07332 38.583 1.25225 38.4477 1.46006L35.0477 6.56006C31.8001 5.51249 28.4101 4.97279 24.9977 4.96006C15.8227 4.96256 7.19521 8.64756 0.712707 15.3351C0.251249 15.8111 -0.00219898 16.451 0.00811543 17.114C0.0184298 17.7769 0.291662 18.4086 0.767707 18.8701ZM47.4927 19.5751C47.9838 19.575 48.4641 19.4304 48.8735 19.1591C49.2829 18.8878 49.6033 18.502 49.7948 18.0497C49.9863 17.5974 50.0403 17.0988 49.9501 16.616C49.8599 16.1332 49.6295 15.6877 49.2877 15.3351C46.779 12.7548 43.8803 10.585 40.6977 8.90506L37.9052 13.0951C40.8018 14.5566 43.4353 16.4896 45.6977 18.8151C45.9306 19.0557 46.2095 19.247 46.5179 19.3776C46.8263 19.5082 47.1578 19.5753 47.4927 19.5751ZM39.9952 27.3101C40.4863 27.31 40.9666 27.1654 41.376 26.8941C41.7854 26.6228 42.1058 26.237 42.2973 25.7847C42.4888 25.3324 42.5428 24.8338 42.4526 24.351C42.3624 23.8682 42.132 23.4227 41.7902 23.0701C39.738 20.9523 37.3079 19.237 34.6252 18.0126L31.8002 22.2551C34.1627 23.2101 36.3477 24.6401 38.2002 26.5501C38.4331 26.7907 38.712 26.982 39.0204 27.1126C39.3288 27.2432 39.6603 27.3103 39.9952 27.3101ZM32.4977 35.0451C32.9888 35.045 33.4691 34.9004 33.8785 34.6291C34.2879 34.3578 34.6083 33.972 34.7998 33.5197C34.9913 33.0674 35.0453 32.5688 34.9551 32.086C34.8649 31.6032 34.6345 31.1577 34.2927 30.8051C32.6744 29.145 30.6376 27.953 28.3977 27.3551L25.3277 31.9626C27.3027 32.0376 29.2552 32.7926 30.7027 34.2876C30.9358 34.5278 31.2148 34.7186 31.5232 34.8488C31.8316 34.9789 32.163 35.0457 32.4977 35.0451Z" fill="black"/>
</svg>
