<svg width="23" height="19" viewBox="0 0 23 19" fill="none" xmlns="http://www.w3.org/2000/svg">
<path d="M0.500001 12.5C0.499385 11.3955 0.780422 10.309 1.31655 9.34331C1.85268 8.37761 2.6262 7.56457 3.564 6.98101C3.81151 5.0511 4.7538 3.27751 6.21452 1.99217C7.67524 0.70682 9.55428 -0.00219727 11.5 -0.00219727C13.4457 -0.00219727 15.3248 0.70682 16.7855 1.99217C18.2462 3.27751 19.1885 5.0511 19.436 6.98101C20.5992 7.7047 21.5041 8.77741 22.0213 10.046C22.5385 11.3146 22.6417 12.7141 22.3161 14.0449C21.9906 15.3756 21.2528 16.5694 20.2083 17.4559C19.1638 18.3423 17.866 18.8761 16.5 18.981L6.5 19C3.144 18.726 0.500001 15.922 0.500001 12.5ZM16.348 16.987C17.2938 16.9143 18.1925 16.5445 18.9156 15.9305C19.6387 15.3166 20.1493 14.4898 20.3745 13.5682C20.5996 12.6467 20.5278 11.6776 20.1692 10.7994C19.8107 9.92114 19.1837 9.17866 18.378 8.67801L17.571 8.17501L17.451 7.23301C17.2641 5.7867 16.5569 4.45795 15.4616 3.4951C14.3663 2.53225 12.9578 2.0012 11.4995 2.0012C10.0412 2.0012 8.63272 2.53225 7.53742 3.4951C6.44213 4.45795 5.73493 5.7867 5.548 7.23301L5.428 8.17501L4.623 8.67801C3.8173 9.1786 3.19038 9.921 2.8318 10.7992C2.47321 11.6773 2.40129 12.6463 2.62631 13.5678C2.85133 14.4893 3.36177 15.3161 4.08475 15.9302C4.80773 16.5442 5.70625 16.9141 6.652 16.987L6.825 17H16.175L16.348 16.987ZM12.5 11V15H10.5V11H7.5L11.5 6.00001L15.5 11H12.5Z" fill="#1F3B4D"/>
</svg>
